<?xml version="1.0" encoding="iso-8859-1"?>
<!-- Uploaded to: SVG Repo, www.svgrepo.com, Generator: SVG Repo Mixer Tools -->
<svg fill="#000000" height="800px" width="800px" version="1.1" id="Layer_1" xmlns="http://www.w3.org/2000/svg" xmlns:xlink="http://www.w3.org/1999/xlink" 
	 viewBox="0 0 512 512" xml:space="preserve">
<g>
	<g>
		<path d="M273.669,430.276h-5.873c-4.674,0-8.46,3.788-8.46,8.46c0,4.672,3.787,8.46,8.46,8.46h5.873c4.674,0,8.46-3.788,8.46-8.46
			C282.129,434.064,278.341,430.276,273.669,430.276z"/>
	</g>
</g>
<g>
	<g>
		<path d="M401.567,22.506H174.839c-4.674,0-8.46,3.788-8.46,8.46v163.106c0,4.672,3.788,8.46,8.46,8.46
			c4.464,0,8.111-3.459,8.429-7.841h209.839v35.079c0,4.672,3.787,8.46,8.46,8.46c4.674,0,8.46-3.788,8.46-8.46V30.966
			C410.027,26.294,406.24,22.506,401.567,22.506z M183.299,93.848h127.002c4.674,0,8.46-3.788,8.46-8.46
			c0-4.672-3.787-8.46-8.46-8.46H183.299v-37.5h209.807v37.5h-54.604c-4.674,0-8.46,3.788-8.46,8.46c0,4.672,3.787,8.46,8.46,8.46
			h54.604v33.501H183.299V93.848z M393.106,177.769H183.299v-33.501h209.807V177.769z"/>
	</g>
</g>
<g>
	<g>
		<path d="M235.188,211.158H8.46c-4.674,0-8.46,3.788-8.46,8.46v244.663c0,4.672,3.787,8.46,8.46,8.46h226.728
			c4.674,0,8.46-3.788,8.46-8.46V219.618C243.649,214.945,239.862,211.158,235.188,211.158z M226.728,409.121H80.081
			c-4.674,0-8.46,3.788-8.46,8.46c0,4.672,3.787,8.46,8.46,8.46h146.647v29.778H16.921v0v-29.778h34.958
			c4.674,0,8.46-3.788,8.46-8.46s-3.787-8.46-8.46-8.46H16.921V375.62h209.807V409.121z M226.728,358.701H16.921v-33.501h209.807
			V358.701z M226.728,308.279H16.921v-33.501h209.807V308.279z M226.728,257.857H16.921v-29.778h209.807V257.857z"/>
	</g>
</g>
<g>
	<g>
		<path d="M355.779,228.191h-91.367c-4.674,0-8.46,3.788-8.46,8.46c0,4.672,3.787,8.46,8.46,8.46h91.367
			c4.674,0,8.46-3.788,8.46-8.46C364.239,231.979,360.452,228.191,355.779,228.191z"/>
	</g>
</g>
<g>
	<g>
		<path d="M279.64,278.613h-15.228c-4.674,0-8.46,3.788-8.46,8.46s3.787,8.46,8.46,8.46h15.228c4.674,0,8.46-3.788,8.46-8.46
			S284.313,278.613,279.64,278.613z"/>
	</g>
</g>
<g>
	<g>
		<path d="M390.176,245.845c-67.175,0-121.824,54.65-121.824,121.824s54.65,121.824,121.824,121.824S512,434.844,512,367.67
			S457.35,245.845,390.176,245.845z M390.176,472.573c-57.843,0-104.904-47.059-104.904-104.904
			c0-57.844,47.06-104.904,104.904-104.904c57.843,0,104.904,47.059,104.904,104.904
			C495.079,425.514,448.019,472.573,390.176,472.573z"/>
	</g>
</g>
<g>
	<g>
		<path d="M465.17,359.209c-4.674,0-8.46,3.788-8.46,8.46c0,37.653-29.847,68.287-66.534,68.287
			c-36.686,0-66.533-30.633-66.533-68.287c0-37.653,29.847-68.287,66.533-68.287c26.771,0,50.827,16.347,61.282,41.644
			c1.785,4.318,6.73,6.372,11.052,4.587c4.317-1.785,6.371-6.732,4.587-11.05c-13.083-31.651-43.275-52.103-76.92-52.103
			c-46.017,0-83.454,38.224-83.454,85.208s37.438,85.208,83.454,85.208c46.018,0,83.455-38.224,83.455-85.208
			C473.63,362.997,469.843,359.209,465.17,359.209z"/>
	</g>
</g>
</svg>